<svg data-v-423bf9ae="" xmlns="http://www.w3.org/2000/svg" viewBox="0 0 709 90" class="iconLeft"><!----><!----><!----><g data-v-423bf9ae="" id="89132680-eb48-40d9-9f27-754021e1bc93" fill="white" transform="matrix(6.036216979508284,0,0,6.036216979508284,111.78705050528265,-12.645872351946814)"><path d="M3.78 14.35L6.15 5.52L6.17 5.52L8.51 14.35L9.49 14.35L12.04 4.58L11.17 4.58L9.02 13.31L8.97 13.31L6.69 4.58L5.67 4.58L3.36 13.31L3.32 13.31L1.23 4.58L0.34 4.58L2.80 14.35ZM16.09 14.52C17.44 14.52 18.44 13.82 18.89 12.77L18.30 12.38C17.91 13.31 17.15 13.82 16.13 13.82C14.66 13.82 13.79 12.77 13.79 11.27L13.79 10.92L19.10 10.92L19.10 10.54C19.10 8.44 17.91 7.01 16.07 7.01C14.17 7.01 12.95 8.41 12.95 10.77C12.95 13.12 14.17 14.52 16.09 14.52ZM16.07 7.69C17.36 7.69 18.23 8.68 18.23 10.19L18.23 10.30L13.79 10.30L13.79 10.23C13.79 8.72 14.69 7.69 16.07 7.69ZM31.51 14.35L28.04 4.58L26.96 4.58L23.51 14.35L24.35 14.35L25.41 11.31L29.57 11.31L30.63 14.35ZM29.34 10.58L25.62 10.58L27.45 5.38L27.51 5.38ZM33.98 14.35L33.98 9.45C33.98 8.53 34.83 7.97 36.02 7.97L36.65 7.97L36.65 7.18L36.18 7.18C34.94 7.18 34.31 7.80 34.03 8.47L33.98 8.47L33.98 7.18L33.18 7.18L33.18 14.35ZM40.70 14.52C42.06 14.52 43.05 13.82 43.50 12.77L42.91 12.38C42.52 13.31 41.76 13.82 40.74 13.82C39.27 13.82 38.40 12.77 38.40 11.27L38.40 10.92L43.71 10.92L43.71 10.54C43.71 8.44 42.52 7.01 40.68 7.01C38.78 7.01 37.56 8.41 37.56 10.77C37.56 13.12 38.78 14.52 40.70 14.52ZM40.68 7.69C41.97 7.69 42.84 8.68 42.84 10.19L42.84 10.30L38.40 10.30L38.40 10.23C38.40 8.72 39.30 7.69 40.68 7.69ZM55.33 14.35L56.17 14.35L56.17 4.58L55.33 4.58L55.33 9.02L49.97 9.02L49.97 4.58L49.13 4.58L49.13 14.35L49.97 14.35L49.97 9.76L55.33 9.76ZM63.34 14.35L64.13 14.35L64.13 7.18L63.34 7.18L63.34 12.21C63.34 13.29 62.40 13.80 61.40 13.80C60.21 13.80 59.56 13.10 59.56 11.63L59.56 7.18L58.76 7.18L58.76 11.79C58.76 13.54 59.67 14.52 61.19 14.52C62.43 14.52 63.01 13.89 63.28 13.22L63.34 13.22ZM67.54 14.35L67.54 9.31C67.54 8.25 68.45 7.73 69.43 7.73C70.60 7.73 71.22 8.43 71.22 9.88L71.22 14.35L72.02 14.35L72.02 9.32C72.02 8.26 72.90 7.73 73.89 7.73C75.10 7.73 75.70 8.44 75.70 9.88L75.70 14.35L76.50 14.35L76.50 9.74C76.50 7.99 75.64 7.01 74.12 7.01C72.84 7.01 72.13 7.69 71.86 8.53L71.82 8.53C71.47 7.49 70.63 7.01 69.61 7.01C68.43 7.01 67.87 7.62 67.58 8.32L67.54 8.32L67.54 7.18L66.74 7.18L66.74 14.35ZM84.74 14.35L84.74 13.65L83.78 13.65L83.78 9.41C83.78 7.90 82.84 7.01 81.17 7.01C79.87 7.01 79.07 7.63 78.68 8.46L79.18 8.88C79.58 8.13 80.19 7.71 81.14 7.71C82.36 7.71 82.98 8.32 82.98 9.49L82.98 10.33L81.33 10.33C79.25 10.33 78.41 11.13 78.41 12.40C78.41 13.73 79.28 14.52 80.78 14.52C81.90 14.52 82.63 14.01 82.95 13.22L83.02 13.22L83.02 13.47C83.06 14 83.31 14.35 83.93 14.35ZM80.89 13.83C79.91 13.83 79.25 13.38 79.25 12.56L79.25 12.22C79.25 11.42 79.87 10.93 81.30 10.93L82.98 10.93L82.98 12.26C82.98 13.23 82.05 13.83 80.89 13.83ZM87.18 14.35L87.18 9.31C87.18 8.25 88.12 7.73 89.12 7.73C90.31 7.73 90.96 8.43 90.96 9.88L90.96 14.35L91.76 14.35L91.76 9.74C91.76 7.99 90.86 7.01 89.33 7.01C88.19 7.01 87.54 7.57 87.22 8.32L87.18 8.32L87.18 7.18L86.38 7.18L86.38 14.35ZM96.29 14.52C97.87 14.52 98.84 13.72 98.84 12.39C98.84 11.24 98.15 10.61 96.70 10.39L96.12 10.30C95.10 10.14 94.58 9.81 94.58 8.99C94.58 8.18 95.19 7.70 96.21 7.70C97.20 7.70 97.79 8.16 98.17 8.61L98.70 8.12C98.17 7.48 97.44 7.01 96.25 7.01C94.86 7.01 93.81 7.69 93.81 9.03C93.81 10.32 94.71 10.84 96.01 11.03L96.60 11.13C97.64 11.28 98.07 11.72 98.07 12.47C98.07 13.34 97.44 13.83 96.35 13.83C95.40 13.83 94.71 13.45 94.12 12.68L93.53 13.15C94.18 14.03 95.05 14.52 96.29 14.52Z"></path></g><!----><g data-v-423bf9ae="" id="4f33ff33-0df4-452a-8136-1636ef5ab410" transform="matrix(1.4504664825663998,0,0,1.4504664825663998,-24.87132370107389,-33.6620914576806)" stroke="none" fill="white"><path d="M64.68 23.669c-5.929 0-11.434 3.014-14.68 7.863-3.246-4.85-8.751-7.863-14.68-7.863-10.567 0-17.668 7.101-17.668 17.668 0 11.467 3.539 25.511 29.798 42.736L50 85.718l2.56-1.651c26.249-17.219 29.788-31.263 29.788-42.729 0-10.568-7.101-17.669-17.668-17.669zm-29.36 3c5.518 0 10.586 3.152 13.073 8.066l-7.985 15.712-.007.017c-.027.056-.046.113-.066.171-.013.037-.029.072-.039.109-.013.048-.018.097-.025.146-.007.048-.019.095-.021.142s.002.094.004.141c.001.049-.001.098.005.146.006.046.021.092.031.138.011.049.019.099.034.146.013.037.032.072.048.109.023.055.045.11.075.162l.008.018a6.994 6.994 0 0 0 2.131 2.136c-4.449 6.456-9.234 13.064-10.287 13.98-.01.005-.016.015-.025.02-9.912-10.334-11.62-19.129-11.62-26.689-.002-8.912 5.756-14.67 14.666-14.67zm15.603 54.883l-.923.595-.914-.589c-.317-.208-.616-.414-.927-.621 1.375-1.208 4.539-4.668 12.638-14.923a1.498 1.498 0 1 0-2.353-1.859c-5.171 6.547-11.137 13.735-12.333 14.64-.204.09-.367.233-.508.396-.597-.419-1.181-.835-1.75-1.249 1.303-1.325 4.232-5.018 11.556-15.728a1.5 1.5 0 1 0-2.477-1.693c-4.708 6.886-10.165 14.466-11.298 15.451-.078.041-.136.105-.204.158a99.284 99.284 0 0 1-2.63-2.086c1.403-1.501 4.396-5.348 11.34-15.502a1.5 1.5 0 1 0-2.477-1.693c-4.501 6.582-9.676 13.784-11.113 15.268a75.658 75.658 0 0 1-2.178-1.996c1.202-1.169 3.987-4.618 11.258-15.226 1.27-.025 2.559-.497 3.844-1.425 4.698-3.391 6.648-9.969 6.729-10.247a1.5 1.5 0 0 0-2.88-.837c-.017.059-1.754 5.874-5.604 8.653-.973.702-1.861.981-2.657.819-.666-.133-1.19-.547-1.543-.908l9.122-17.948c2.712-3.907 7.203-6.332 12.04-6.332 8.91 0 14.668 5.758 14.668 14.668-.001 10.665-3.379 23.784-28.426 40.214z"></path></g><!----></svg>