<svg data-v-423bf9ae="" xmlns="http://www.w3.org/2000/svg" viewBox="0 0 594.5673724815659 60" class="font"><!----><!----><!----><g data-v-423bf9ae="" id="ff2d069a-dd82-462f-b7aa-42fa78ad4889" fill="white" transform="matrix(6.036216979508284,0,0,6.036216979508284,-2.0523202222564123,-27.645872351946814)"><path d="M3.78 14.35L6.15 5.52L6.17 5.52L8.51 14.35L9.49 14.35L12.04 4.58L11.17 4.58L9.02 13.31L8.97 13.31L6.69 4.58L5.67 4.58L3.36 13.31L3.32 13.31L1.23 4.58L0.34 4.58L2.80 14.35ZM16.09 14.52C17.44 14.52 18.44 13.82 18.89 12.77L18.30 12.38C17.91 13.31 17.15 13.82 16.13 13.82C14.66 13.82 13.79 12.77 13.79 11.27L13.79 10.92L19.10 10.92L19.10 10.54C19.10 8.44 17.91 7.01 16.07 7.01C14.17 7.01 12.95 8.41 12.95 10.77C12.95 13.12 14.17 14.52 16.09 14.52ZM16.07 7.69C17.36 7.69 18.23 8.68 18.23 10.19L18.23 10.30L13.79 10.30L13.79 10.23C13.79 8.72 14.69 7.69 16.07 7.69ZM31.51 14.35L28.04 4.58L26.96 4.58L23.51 14.35L24.35 14.35L25.41 11.31L29.57 11.31L30.63 14.35ZM29.34 10.58L25.62 10.58L27.45 5.38L27.51 5.38ZM33.98 14.35L33.98 9.45C33.98 8.53 34.83 7.97 36.02 7.97L36.65 7.97L36.65 7.18L36.18 7.18C34.94 7.18 34.31 7.80 34.03 8.47L33.98 8.47L33.98 7.18L33.18 7.18L33.18 14.35ZM40.70 14.52C42.06 14.52 43.05 13.82 43.50 12.77L42.91 12.38C42.52 13.31 41.76 13.82 40.74 13.82C39.27 13.82 38.40 12.77 38.40 11.27L38.40 10.92L43.71 10.92L43.71 10.54C43.71 8.44 42.52 7.01 40.68 7.01C38.78 7.01 37.56 8.41 37.56 10.77C37.56 13.12 38.78 14.52 40.70 14.52ZM40.68 7.69C41.97 7.69 42.84 8.68 42.84 10.19L42.84 10.30L38.40 10.30L38.40 10.23C38.40 8.72 39.30 7.69 40.68 7.69ZM55.33 14.35L56.17 14.35L56.17 4.58L55.33 4.58L55.33 9.02L49.97 9.02L49.97 4.58L49.13 4.58L49.13 14.35L49.97 14.35L49.97 9.76L55.33 9.76ZM63.34 14.35L64.13 14.35L64.13 7.18L63.34 7.18L63.34 12.21C63.34 13.29 62.40 13.80 61.40 13.80C60.21 13.80 59.56 13.10 59.56 11.63L59.56 7.18L58.76 7.18L58.76 11.79C58.76 13.54 59.67 14.52 61.19 14.52C62.43 14.52 63.01 13.89 63.28 13.22L63.34 13.22ZM67.54 14.35L67.54 9.31C67.54 8.25 68.45 7.73 69.43 7.73C70.60 7.73 71.22 8.43 71.22 9.88L71.22 14.35L72.02 14.35L72.02 9.32C72.02 8.26 72.90 7.73 73.89 7.73C75.10 7.73 75.70 8.44 75.70 9.88L75.70 14.35L76.50 14.35L76.50 9.74C76.50 7.99 75.64 7.01 74.12 7.01C72.84 7.01 72.13 7.69 71.86 8.53L71.82 8.53C71.47 7.49 70.63 7.01 69.61 7.01C68.43 7.01 67.87 7.62 67.58 8.32L67.54 8.32L67.54 7.18L66.74 7.18L66.74 14.35ZM84.74 14.35L84.74 13.65L83.78 13.65L83.78 9.41C83.78 7.90 82.84 7.01 81.17 7.01C79.87 7.01 79.07 7.63 78.68 8.46L79.18 8.88C79.58 8.13 80.19 7.71 81.14 7.71C82.36 7.71 82.98 8.32 82.98 9.49L82.98 10.33L81.33 10.33C79.25 10.33 78.41 11.13 78.41 12.40C78.41 13.73 79.28 14.52 80.78 14.52C81.90 14.52 82.63 14.01 82.95 13.22L83.02 13.22L83.02 13.47C83.06 14 83.31 14.35 83.93 14.35ZM80.89 13.83C79.91 13.83 79.25 13.38 79.25 12.56L79.25 12.22C79.25 11.42 79.87 10.93 81.30 10.93L82.98 10.93L82.98 12.26C82.98 13.23 82.05 13.83 80.89 13.83ZM87.18 14.35L87.18 9.31C87.18 8.25 88.12 7.73 89.12 7.73C90.31 7.73 90.96 8.43 90.96 9.88L90.96 14.35L91.76 14.35L91.76 9.74C91.76 7.99 90.86 7.01 89.33 7.01C88.19 7.01 87.54 7.57 87.22 8.32L87.18 8.32L87.18 7.18L86.38 7.18L86.38 14.35ZM96.29 14.52C97.87 14.52 98.84 13.72 98.84 12.39C98.84 11.24 98.15 10.61 96.70 10.39L96.12 10.30C95.10 10.14 94.58 9.81 94.58 8.99C94.58 8.18 95.19 7.70 96.21 7.70C97.20 7.70 97.79 8.16 98.17 8.61L98.70 8.12C98.17 7.48 97.44 7.01 96.25 7.01C94.86 7.01 93.81 7.69 93.81 9.03C93.81 10.32 94.71 10.84 96.01 11.03L96.60 11.13C97.64 11.28 98.07 11.72 98.07 12.47C98.07 13.34 97.44 13.83 96.35 13.83C95.40 13.83 94.71 13.45 94.12 12.68L93.53 13.15C94.18 14.03 95.05 14.52 96.29 14.52Z"></path></g><!----><!----></svg>